%TF.GenerationSoftware,KiCad,Pcbnew,(6.0.7-1)-1*%
%TF.CreationDate,2022-10-11T17:33:30-05:00*%
%TF.ProjectId,PCB 2,50434220-322e-46b6-9963-61645f706362,rev?*%
%TF.SameCoordinates,Original*%
%TF.FileFunction,Paste,Top*%
%TF.FilePolarity,Positive*%
%FSLAX46Y46*%
G04 Gerber Fmt 4.6, Leading zero omitted, Abs format (unit mm)*
G04 Created by KiCad (PCBNEW (6.0.7-1)-1) date 2022-10-11 17:33:30*
%MOMM*%
%LPD*%
G01*
G04 APERTURE LIST*
G04 Aperture macros list*
%AMRoundRect*
0 Rectangle with rounded corners*
0 $1 Rounding radius*
0 $2 $3 $4 $5 $6 $7 $8 $9 X,Y pos of 4 corners*
0 Add a 4 corners polygon primitive as box body*
4,1,4,$2,$3,$4,$5,$6,$7,$8,$9,$2,$3,0*
0 Add four circle primitives for the rounded corners*
1,1,$1+$1,$2,$3*
1,1,$1+$1,$4,$5*
1,1,$1+$1,$6,$7*
1,1,$1+$1,$8,$9*
0 Add four rect primitives between the rounded corners*
20,1,$1+$1,$2,$3,$4,$5,0*
20,1,$1+$1,$4,$5,$6,$7,0*
20,1,$1+$1,$6,$7,$8,$9,0*
20,1,$1+$1,$8,$9,$2,$3,0*%
G04 Aperture macros list end*
%ADD10RoundRect,0.150000X-0.875000X-0.150000X0.875000X-0.150000X0.875000X0.150000X-0.875000X0.150000X0*%
%ADD11R,2.000000X0.500000*%
%ADD12RoundRect,0.250000X-0.350000X-0.450000X0.350000X-0.450000X0.350000X0.450000X-0.350000X0.450000X0*%
%ADD13R,3.680000X1.270000*%
%ADD14RoundRect,0.250000X-0.250000X-1.150000X0.250000X-1.150000X0.250000X1.150000X-0.250000X1.150000X0*%
%ADD15RoundRect,0.150000X-0.150000X-0.700000X0.150000X-0.700000X0.150000X0.700000X-0.150000X0.700000X0*%
%ADD16R,2.200000X1.600000*%
G04 APERTURE END LIST*
D10*
%TO.C,U3*%
X98620000Y-42535000D03*
X98620000Y-43805000D03*
X98620000Y-45075000D03*
X98620000Y-46345000D03*
X98620000Y-47615000D03*
X98620000Y-48885000D03*
X98620000Y-50155000D03*
X98620000Y-51425000D03*
X89320000Y-51425000D03*
X89320000Y-50155000D03*
X89320000Y-48885000D03*
X89320000Y-47615000D03*
X89320000Y-46345000D03*
X89320000Y-45075000D03*
X89320000Y-43805000D03*
X89320000Y-42535000D03*
%TD*%
D11*
%TO.C,U2*%
X140260000Y-97155000D03*
X140260000Y-95885000D03*
X140260000Y-98425000D03*
X140260000Y-99695000D03*
X140260000Y-100965000D03*
X140260000Y-94615000D03*
X140260000Y-93345000D03*
X140260000Y-92075000D03*
X134060000Y-97155000D03*
X134060000Y-95885000D03*
X134060000Y-98425000D03*
X134060000Y-99695000D03*
X134060000Y-100965000D03*
X134060000Y-94615000D03*
X134060000Y-93345000D03*
X134060000Y-92075000D03*
%TD*%
D12*
%TO.C,R100*%
X57870000Y-133350000D03*
X55870000Y-133350000D03*
%TD*%
%TO.C,R21*%
X60690000Y-119380000D03*
X58690000Y-119380000D03*
%TD*%
%TO.C,R20*%
X67370000Y-133350000D03*
X65370000Y-133350000D03*
%TD*%
%TO.C,R17*%
X150530000Y-141400000D03*
X148530000Y-141400000D03*
%TD*%
%TO.C,R16*%
X145070000Y-64152000D03*
X143070000Y-64152000D03*
%TD*%
%TO.C,R15*%
X135640000Y-71872000D03*
X133640000Y-71872000D03*
%TD*%
%TO.C,R14*%
X145780000Y-142240000D03*
X143780000Y-142240000D03*
%TD*%
%TO.C,R13*%
X62620000Y-133350000D03*
X60620000Y-133350000D03*
%TD*%
%TO.C,R12*%
X72120000Y-133350000D03*
X70120000Y-133350000D03*
%TD*%
%TO.C,R11*%
X129820000Y-133550000D03*
X127820000Y-133550000D03*
%TD*%
%TO.C,R10*%
X153020000Y-56202000D03*
X151020000Y-56202000D03*
%TD*%
%TO.C,R9*%
X145780000Y-139290000D03*
X143780000Y-139290000D03*
%TD*%
%TO.C,R8*%
X117840000Y-130810000D03*
X115840000Y-130810000D03*
%TD*%
%TO.C,R7*%
X135910000Y-152490000D03*
X133910000Y-152490000D03*
%TD*%
D13*
%TO.C,J1000*%
X153735000Y-76200000D03*
X158685000Y-76200000D03*
X153735000Y-78740000D03*
X158685000Y-78740000D03*
X153735000Y-81280000D03*
X158685000Y-81280000D03*
X153735000Y-83820000D03*
X158685000Y-83820000D03*
X153735000Y-86360000D03*
X158685000Y-86360000D03*
%TD*%
D14*
%TO.C,J16*%
X127975000Y-140940000D03*
X132925000Y-140940000D03*
D15*
X131075000Y-144290000D03*
X129825000Y-144290000D03*
%TD*%
D14*
%TO.C,J15*%
X66105000Y-76070000D03*
X71055000Y-76070000D03*
D15*
X69205000Y-79420000D03*
X67955000Y-79420000D03*
%TD*%
D16*
%TO.C,C100*%
X127230000Y-34290000D03*
X124230000Y-34290000D03*
%TD*%
%TO.C,C17*%
X111990000Y-33020000D03*
X108990000Y-33020000D03*
%TD*%
%TO.C,C11*%
X137410000Y-148590000D03*
X134410000Y-148590000D03*
%TD*%
%TO.C,C10*%
X138010000Y-122200000D03*
X135010000Y-122200000D03*
%TD*%
%TO.C,C9*%
X101830000Y-132080000D03*
X98830000Y-132080000D03*
%TD*%
%TO.C,C7*%
X70220000Y-125160000D03*
X67220000Y-125160000D03*
%TD*%
%TO.C,C1*%
X138660000Y-34290000D03*
X135660000Y-34290000D03*
%TD*%
%TO.C,C0*%
X152260000Y-137500000D03*
X149260000Y-137500000D03*
%TD*%
M02*
