M48
; DRILL file {KiCad (6.0.7-1)-1} date Tuesday, October 11, 2022 at 05:33:35 PM
; FORMAT={-:-/ absolute / inch / decimal}
; #@! TF.CreationDate,2022-10-11T17:33:35-05:00
; #@! TF.GenerationSoftware,Kicad,Pcbnew,(6.0.7-1)-1
; #@! TF.FileFunction,Plated,1,2,PTH
FMAT,2
INCH
; #@! TA.AperFunction,Plated,PTH,ComponentDrill
T1C0.0259
; #@! TA.AperFunction,Plated,PTH,ComponentDrill
T2C0.0315
; #@! TA.AperFunction,Plated,PTH,ComponentDrill
T3C0.0394
; #@! TA.AperFunction,Plated,PTH,ComponentDrill
T4C0.0402
; #@! TA.AperFunction,Plated,PTH,ComponentDrill
T5C0.0440
; #@! TA.AperFunction,Plated,PTH,ComponentDrill
T6C0.0488
%
G90
G05
T1
X2.75Y-2.4539
X2.75Y-2.6461
T2
X3.05Y-1.7
X3.05Y-1.8
X3.05Y-1.9
X3.05Y-2.0
X3.05Y-2.1
X3.05Y-2.2
X3.05Y-2.3
X3.05Y-2.4
X3.05Y-2.5
X3.05Y-2.6
X3.05Y-2.7
X3.05Y-2.8
X3.05Y-2.9
X3.05Y-3.0
X3.35Y-1.7
X3.35Y-1.8
X3.35Y-1.9
X3.35Y-2.0
X3.35Y-2.1
X3.35Y-2.2
X3.35Y-2.3
X3.35Y-2.4
X3.35Y-2.5
X3.35Y-2.6
X3.35Y-2.7
X3.35Y-2.8
X3.35Y-2.9
X3.35Y-3.0
T3
X1.7Y-2.2
X1.7Y-2.3
X1.7Y-2.4
X1.8Y-2.2
X1.8Y-2.3
X1.8Y-2.4
X5.25Y-2.3148
X5.35Y-2.3148
X5.45Y-2.3148
X6.3998Y-1.9417
X6.4498Y-1.8417
X6.4998Y-1.9417
X6.5498Y-1.8417
X6.5998Y-1.9417
X6.6498Y-1.8417
X6.6998Y-1.9417
X6.7498Y-1.8417
X6.7998Y-1.9417
X6.8498Y-1.8417
X6.8998Y-1.9417
X6.9498Y-1.8417
X6.9998Y-1.9417
X7.0498Y-1.8417
X7.0998Y-1.9417
T4
X3.05Y-0.95
X3.1Y-1.05
X3.15Y-0.95
X3.2Y-1.05
X3.25Y-0.95
X3.3Y-1.05
X3.35Y-0.95
X3.4Y-1.05
X3.45Y-0.95
X3.5Y-1.05
X3.55Y-0.95
X3.6Y-1.05
X3.65Y-0.95
X3.7Y-1.05
X3.75Y-0.95
X3.8Y-1.05
X3.85Y-0.95
X3.9Y-1.05
X3.95Y-0.95
X4.0Y-1.05
X4.05Y-0.95
X4.1Y-1.05
X4.15Y-0.95
X4.2Y-1.05
X4.25Y-0.95
X4.3Y-1.05
X4.35Y-0.95
X4.4Y-1.05
X4.45Y-0.95
X4.5Y-1.05
X4.55Y-0.95
X4.85Y-4.4
X4.95Y-4.4
X5.05Y-4.4
X5.1Y-1.0
X5.15Y-4.4
X5.2Y-1.0
X5.25Y-4.4
X5.3Y-1.0
X5.35Y-4.4
X5.4Y-1.0
X5.45Y-4.4
X5.5Y-1.0
X5.55Y-4.4
X5.6Y-1.0
X5.7Y-1.0
X5.8Y-1.0
X7.0Y-3.5
X7.0Y-3.6
X7.0Y-3.7
X7.0Y-3.8
X7.0Y-3.9
X7.0Y-4.0
X7.0Y-4.1
X7.0Y-4.2
T5
X6.65Y-2.65
X6.65Y-2.95
X6.75Y-2.65
X6.75Y-2.95
X6.85Y-2.65
X6.85Y-2.95
X6.95Y-2.65
X6.95Y-2.95
X7.05Y-2.65
X7.05Y-2.95
X7.15Y-2.65
X7.15Y-2.95
X7.25Y-2.65
X7.25Y-2.95
T6
X3.1099Y-3.3216
X3.2099Y-3.3216
X3.3099Y-3.3216
T0
M30
