%TF.GenerationSoftware,KiCad,Pcbnew,(6.0.7-1)-1*%
%TF.CreationDate,2022-10-11T17:33:30-05:00*%
%TF.ProjectId,PCB 2,50434220-322e-46b6-9963-61645f706362,rev?*%
%TF.SameCoordinates,Original*%
%TF.FileFunction,Copper,L1,Top*%
%TF.FilePolarity,Positive*%
%FSLAX46Y46*%
G04 Gerber Fmt 4.6, Leading zero omitted, Abs format (unit mm)*
G04 Created by KiCad (PCBNEW (6.0.7-1)-1) date 2022-10-11 17:33:30*
%MOMM*%
%LPD*%
G01*
G04 APERTURE LIST*
G04 Aperture macros list*
%AMRoundRect*
0 Rectangle with rounded corners*
0 $1 Rounding radius*
0 $2 $3 $4 $5 $6 $7 $8 $9 X,Y pos of 4 corners*
0 Add a 4 corners polygon primitive as box body*
4,1,4,$2,$3,$4,$5,$6,$7,$8,$9,$2,$3,0*
0 Add four circle primitives for the rounded corners*
1,1,$1+$1,$2,$3*
1,1,$1+$1,$4,$5*
1,1,$1+$1,$6,$7*
1,1,$1+$1,$8,$9*
0 Add four rect primitives between the rounded corners*
20,1,$1+$1,$2,$3,$4,$5,0*
20,1,$1+$1,$4,$5,$6,$7,0*
20,1,$1+$1,$6,$7,$8,$9,0*
20,1,$1+$1,$8,$9,$2,$3,0*%
G04 Aperture macros list end*
%ADD10C,0.300000*%
%TA.AperFunction,NonConductor*%
%ADD11C,0.300000*%
%TD*%
%TA.AperFunction,NonConductor*%
%ADD12C,0.200000*%
%TD*%
%TA.AperFunction,ComponentPad*%
%ADD13C,1.007000*%
%TD*%
%TA.AperFunction,ComponentPad*%
%ADD14C,1.860000*%
%TD*%
%TA.AperFunction,ComponentPad*%
%ADD15R,1.860000X1.860000*%
%TD*%
%TA.AperFunction,ComponentPad*%
%ADD16O,1.800000X1.800000*%
%TD*%
%TA.AperFunction,ComponentPad*%
%ADD17R,1.800000X1.800000*%
%TD*%
%TA.AperFunction,ComponentPad*%
%ADD18C,1.676400*%
%TD*%
%TA.AperFunction,ComponentPad*%
%ADD19R,1.676400X1.676400*%
%TD*%
%TA.AperFunction,SMDPad,CuDef*%
%ADD20RoundRect,0.150000X-0.875000X-0.150000X0.875000X-0.150000X0.875000X0.150000X-0.875000X0.150000X0*%
%TD*%
%TA.AperFunction,SMDPad,CuDef*%
%ADD21R,2.000000X0.500000*%
%TD*%
%TA.AperFunction,ComponentPad*%
%ADD22O,1.600000X1.600000*%
%TD*%
%TA.AperFunction,ComponentPad*%
%ADD23R,1.600000X1.600000*%
%TD*%
%TA.AperFunction,SMDPad,CuDef*%
%ADD24RoundRect,0.250000X-0.350000X-0.450000X0.350000X-0.450000X0.350000X0.450000X-0.350000X0.450000X0*%
%TD*%
%TA.AperFunction,SMDPad,CuDef*%
%ADD25R,3.680000X1.270000*%
%TD*%
%TA.AperFunction,SMDPad,CuDef*%
%ADD26RoundRect,0.250000X-0.250000X-1.150000X0.250000X-1.150000X0.250000X1.150000X-0.250000X1.150000X0*%
%TD*%
%TA.AperFunction,SMDPad,CuDef*%
%ADD27RoundRect,0.150000X-0.150000X-0.700000X0.150000X-0.700000X0.150000X0.700000X-0.150000X0.700000X0*%
%TD*%
%TA.AperFunction,ComponentPad*%
%ADD28C,1.700000*%
%TD*%
%TA.AperFunction,ComponentPad*%
%ADD29RoundRect,0.250000X-0.600000X-0.600000X0.600000X-0.600000X0.600000X0.600000X-0.600000X0.600000X0*%
%TD*%
%TA.AperFunction,ComponentPad*%
%ADD30C,1.530000*%
%TD*%
%TA.AperFunction,ComponentPad*%
%ADD31R,1.530000X1.530000*%
%TD*%
%TA.AperFunction,SMDPad,CuDef*%
%ADD32R,2.200000X1.600000*%
%TD*%
G04 APERTURE END LIST*
D10*
D11*
X98767142Y-100891428D02*
X98624285Y-100820000D01*
X98552857Y-100748571D01*
X98481428Y-100605714D01*
X98481428Y-100534285D01*
X98552857Y-100391428D01*
X98624285Y-100320000D01*
X98767142Y-100248571D01*
X99052857Y-100248571D01*
X99195714Y-100320000D01*
X99267142Y-100391428D01*
X99338571Y-100534285D01*
X99338571Y-100605714D01*
X99267142Y-100748571D01*
X99195714Y-100820000D01*
X99052857Y-100891428D01*
X98767142Y-100891428D01*
X98624285Y-100962857D01*
X98552857Y-101034285D01*
X98481428Y-101177142D01*
X98481428Y-101462857D01*
X98552857Y-101605714D01*
X98624285Y-101677142D01*
X98767142Y-101748571D01*
X99052857Y-101748571D01*
X99195714Y-101677142D01*
X99267142Y-101605714D01*
X99338571Y-101462857D01*
X99338571Y-101177142D01*
X99267142Y-101034285D01*
X99195714Y-100962857D01*
X99052857Y-100891428D01*
X99838571Y-100248571D02*
X100767142Y-100248571D01*
X100267142Y-100820000D01*
X100481428Y-100820000D01*
X100624285Y-100891428D01*
X100695714Y-100962857D01*
X100767142Y-101105714D01*
X100767142Y-101462857D01*
X100695714Y-101605714D01*
X100624285Y-101677142D01*
X100481428Y-101748571D01*
X100052857Y-101748571D01*
X99910000Y-101677142D01*
X99838571Y-101605714D01*
X101410000Y-101605714D02*
X101481428Y-101677142D01*
X101410000Y-101748571D01*
X101338571Y-101677142D01*
X101410000Y-101605714D01*
X101410000Y-101748571D01*
X102338571Y-100891428D02*
X102195714Y-100820000D01*
X102124285Y-100748571D01*
X102052857Y-100605714D01*
X102052857Y-100534285D01*
X102124285Y-100391428D01*
X102195714Y-100320000D01*
X102338571Y-100248571D01*
X102624285Y-100248571D01*
X102767142Y-100320000D01*
X102838571Y-100391428D01*
X102910000Y-100534285D01*
X102910000Y-100605714D01*
X102838571Y-100748571D01*
X102767142Y-100820000D01*
X102624285Y-100891428D01*
X102338571Y-100891428D01*
X102195714Y-100962857D01*
X102124285Y-101034285D01*
X102052857Y-101177142D01*
X102052857Y-101462857D01*
X102124285Y-101605714D01*
X102195714Y-101677142D01*
X102338571Y-101748571D01*
X102624285Y-101748571D01*
X102767142Y-101677142D01*
X102838571Y-101605714D01*
X102910000Y-101462857D01*
X102910000Y-101177142D01*
X102838571Y-101034285D01*
X102767142Y-100962857D01*
X102624285Y-100891428D01*
X103481428Y-100391428D02*
X103552857Y-100320000D01*
X103695714Y-100248571D01*
X104052857Y-100248571D01*
X104195714Y-100320000D01*
X104267142Y-100391428D01*
X104338571Y-100534285D01*
X104338571Y-100677142D01*
X104267142Y-100891428D01*
X103410000Y-101748571D01*
X104338571Y-101748571D01*
X105267142Y-100248571D02*
X105410000Y-100248571D01*
X105552857Y-100320000D01*
X105624285Y-100391428D01*
X105695714Y-100534285D01*
X105767142Y-100820000D01*
X105767142Y-101177142D01*
X105695714Y-101462857D01*
X105624285Y-101605714D01*
X105552857Y-101677142D01*
X105410000Y-101748571D01*
X105267142Y-101748571D01*
X105124285Y-101677142D01*
X105052857Y-101605714D01*
X104981428Y-101462857D01*
X104910000Y-101177142D01*
X104910000Y-100820000D01*
X104981428Y-100534285D01*
X105052857Y-100391428D01*
X105124285Y-100320000D01*
X105267142Y-100248571D01*
X106695714Y-100248571D02*
X106838571Y-100248571D01*
X106981428Y-100320000D01*
X107052857Y-100391428D01*
X107124285Y-100534285D01*
X107195714Y-100820000D01*
X107195714Y-101177142D01*
X107124285Y-101462857D01*
X107052857Y-101605714D01*
X106981428Y-101677142D01*
X106838571Y-101748571D01*
X106695714Y-101748571D01*
X106552857Y-101677142D01*
X106481428Y-101605714D01*
X106410000Y-101462857D01*
X106338571Y-101177142D01*
X106338571Y-100820000D01*
X106410000Y-100534285D01*
X106481428Y-100391428D01*
X106552857Y-100320000D01*
X106695714Y-100248571D01*
X108981428Y-101748571D02*
X108981428Y-100748571D01*
X108981428Y-100891428D02*
X109052857Y-100820000D01*
X109195714Y-100748571D01*
X109410000Y-100748571D01*
X109552857Y-100820000D01*
X109624285Y-100962857D01*
X109624285Y-101748571D01*
X109624285Y-100962857D02*
X109695714Y-100820000D01*
X109838571Y-100748571D01*
X110052857Y-100748571D01*
X110195714Y-100820000D01*
X110267142Y-100962857D01*
X110267142Y-101748571D01*
X110981428Y-101748571D02*
X110981428Y-100748571D01*
X110981428Y-100891428D02*
X111052857Y-100820000D01*
X111195714Y-100748571D01*
X111410000Y-100748571D01*
X111552857Y-100820000D01*
X111624285Y-100962857D01*
X111624285Y-101748571D01*
X111624285Y-100962857D02*
X111695714Y-100820000D01*
X111838571Y-100748571D01*
X112052857Y-100748571D01*
X112195714Y-100820000D01*
X112267142Y-100962857D01*
X112267142Y-101748571D01*
D12*
X63500000Y-39870000D02*
X63500000Y-103456420D01*
X147320000Y-39870000D02*
X147320000Y-103456420D01*
X63500000Y-102870000D02*
X147320000Y-102870000D01*
X63500000Y-102870000D02*
X147320000Y-102870000D01*
X63500000Y-102870000D02*
X64626504Y-103456421D01*
X63500000Y-102870000D02*
X64626504Y-102283579D01*
X147320000Y-102870000D02*
X146193496Y-102283579D01*
X147320000Y-102870000D02*
X146193496Y-103456421D01*
D10*
D11*
X60878571Y-77334285D02*
X60878571Y-77620000D01*
X60950000Y-77762857D01*
X61021428Y-77834285D01*
X61235714Y-77977142D01*
X61521428Y-78048571D01*
X62092857Y-78048571D01*
X62235714Y-77977142D01*
X62307142Y-77905714D01*
X62378571Y-77762857D01*
X62378571Y-77477142D01*
X62307142Y-77334285D01*
X62235714Y-77262857D01*
X62092857Y-77191428D01*
X61735714Y-77191428D01*
X61592857Y-77262857D01*
X61521428Y-77334285D01*
X61450000Y-77477142D01*
X61450000Y-77762857D01*
X61521428Y-77905714D01*
X61592857Y-77977142D01*
X61735714Y-78048571D01*
X60878571Y-76691428D02*
X60878571Y-75762857D01*
X61450000Y-76262857D01*
X61450000Y-76048571D01*
X61521428Y-75905714D01*
X61592857Y-75834285D01*
X61735714Y-75762857D01*
X62092857Y-75762857D01*
X62235714Y-75834285D01*
X62307142Y-75905714D01*
X62378571Y-76048571D01*
X62378571Y-76477142D01*
X62307142Y-76620000D01*
X62235714Y-76691428D01*
X62235714Y-75120000D02*
X62307142Y-75048571D01*
X62378571Y-75120000D01*
X62307142Y-75191428D01*
X62235714Y-75120000D01*
X62378571Y-75120000D01*
X60878571Y-73691428D02*
X60878571Y-74405714D01*
X61592857Y-74477142D01*
X61521428Y-74405714D01*
X61450000Y-74262857D01*
X61450000Y-73905714D01*
X61521428Y-73762857D01*
X61592857Y-73691428D01*
X61735714Y-73620000D01*
X62092857Y-73620000D01*
X62235714Y-73691428D01*
X62307142Y-73762857D01*
X62378571Y-73905714D01*
X62378571Y-74262857D01*
X62307142Y-74405714D01*
X62235714Y-74477142D01*
X60878571Y-72691428D02*
X60878571Y-72548571D01*
X60950000Y-72405714D01*
X61021428Y-72334285D01*
X61164285Y-72262857D01*
X61450000Y-72191428D01*
X61807142Y-72191428D01*
X62092857Y-72262857D01*
X62235714Y-72334285D01*
X62307142Y-72405714D01*
X62378571Y-72548571D01*
X62378571Y-72691428D01*
X62307142Y-72834285D01*
X62235714Y-72905714D01*
X62092857Y-72977142D01*
X61807142Y-73048571D01*
X61450000Y-73048571D01*
X61164285Y-72977142D01*
X61021428Y-72905714D01*
X60950000Y-72834285D01*
X60878571Y-72691428D01*
X60878571Y-71262857D02*
X60878571Y-71120000D01*
X60950000Y-70977142D01*
X61021428Y-70905714D01*
X61164285Y-70834285D01*
X61450000Y-70762857D01*
X61807142Y-70762857D01*
X62092857Y-70834285D01*
X62235714Y-70905714D01*
X62307142Y-70977142D01*
X62378571Y-71120000D01*
X62378571Y-71262857D01*
X62307142Y-71405714D01*
X62235714Y-71477142D01*
X62092857Y-71548571D01*
X61807142Y-71620000D01*
X61450000Y-71620000D01*
X61164285Y-71548571D01*
X61021428Y-71477142D01*
X60950000Y-71405714D01*
X60878571Y-71262857D01*
X60878571Y-69834285D02*
X60878571Y-69691428D01*
X60950000Y-69548571D01*
X61021428Y-69477142D01*
X61164285Y-69405714D01*
X61450000Y-69334285D01*
X61807142Y-69334285D01*
X62092857Y-69405714D01*
X62235714Y-69477142D01*
X62307142Y-69548571D01*
X62378571Y-69691428D01*
X62378571Y-69834285D01*
X62307142Y-69977142D01*
X62235714Y-70048571D01*
X62092857Y-70120000D01*
X61807142Y-70191428D01*
X61450000Y-70191428D01*
X61164285Y-70120000D01*
X61021428Y-70048571D01*
X60950000Y-69977142D01*
X60878571Y-69834285D01*
X62378571Y-67548571D02*
X61378571Y-67548571D01*
X61521428Y-67548571D02*
X61450000Y-67477142D01*
X61378571Y-67334285D01*
X61378571Y-67120000D01*
X61450000Y-66977142D01*
X61592857Y-66905714D01*
X62378571Y-66905714D01*
X61592857Y-66905714D02*
X61450000Y-66834285D01*
X61378571Y-66691428D01*
X61378571Y-66477142D01*
X61450000Y-66334285D01*
X61592857Y-66262857D01*
X62378571Y-66262857D01*
X62378571Y-65548571D02*
X61378571Y-65548571D01*
X61521428Y-65548571D02*
X61450000Y-65477142D01*
X61378571Y-65334285D01*
X61378571Y-65120000D01*
X61450000Y-64977142D01*
X61592857Y-64905714D01*
X62378571Y-64905714D01*
X61592857Y-64905714D02*
X61450000Y-64834285D01*
X61378571Y-64691428D01*
X61378571Y-64477142D01*
X61450000Y-64334285D01*
X61592857Y-64262857D01*
X62378571Y-64262857D01*
D12*
X146820000Y-39370000D02*
X62913580Y-39370000D01*
X146820000Y-102870000D02*
X62913580Y-102870000D01*
X63500000Y-39370000D02*
X63500000Y-102870000D01*
X63500000Y-39370000D02*
X63500000Y-102870000D01*
X63500000Y-39370000D02*
X62913579Y-40496504D01*
X63500000Y-39370000D02*
X64086421Y-40496504D01*
X63500000Y-102870000D02*
X64086421Y-101743496D01*
X63500000Y-102870000D02*
X62913579Y-101743496D01*
D13*
%TO.P,Y1,2,2*%
%TO.N,XTAL1*%
X69850000Y-62330000D03*
%TO.P,Y1,1,1*%
%TO.N,XTAL2*%
X69850000Y-67210000D03*
%TD*%
D14*
%TO.P,V1,3,OUT*%
%TO.N,RESET*%
X84072500Y-84368000D03*
%TO.P,V1,2,GND*%
X81532500Y-84368000D03*
D15*
%TO.P,V1,1,IN*%
%TO.N,Net-(V1-Pad1)*%
X78992500Y-84368000D03*
%TD*%
D16*
%TO.P,U5,15,SENSE_B*%
%TO.N,Net-(U5-Pad15)*%
X180335000Y-49320000D03*
%TO.P,U5,14,OUT4*%
%TO.N,OUT4*%
X179065000Y-46780000D03*
%TO.P,U5,13,OUT3*%
%TO.N,OUT3*%
X177795000Y-49320000D03*
%TO.P,U5,12,IN4*%
%TO.N,Net-(U5-Pad12)*%
X176525000Y-46780000D03*
%TO.P,U5,11,EnB*%
%TO.N,RESET*%
X175255000Y-49320000D03*
%TO.P,U5,10,IN3*%
%TO.N,IN3*%
X173985000Y-46780000D03*
%TO.P,U5,9,Vss*%
%TO.N,RESET*%
X172715000Y-49320000D03*
%TO.P,U5,8,GND*%
X171445000Y-46780000D03*
%TO.P,U5,7,IN2*%
%TO.N,Net-(U5-Pad7)*%
X170175000Y-49320000D03*
%TO.P,U5,6,EnA*%
%TO.N,RESET*%
X168905000Y-46780000D03*
%TO.P,U5,5,IN1*%
%TO.N,IN1*%
X167635000Y-49320000D03*
%TO.P,U5,4,Vs*%
%TO.N,RESET*%
X166365000Y-46780000D03*
%TO.P,U5,3,OUT2*%
%TO.N,OUT2*%
X165095000Y-49320000D03*
%TO.P,U5,2,OUT1*%
%TO.N,OUT1*%
X163825000Y-46780000D03*
D17*
%TO.P,U5,1,SENSE_A*%
%TO.N,Net-(U5-Pad1)*%
X162555000Y-49320000D03*
%TD*%
D18*
%TO.P,U4,14,VCC*%
%TO.N,RESET*%
X168910000Y-67310000D03*
%TO.P,U4,13*%
%TO.N,N/C*%
X171450000Y-67310000D03*
%TO.P,U4,12*%
X173990000Y-67310000D03*
%TO.P,U4,11*%
X176530000Y-67310000D03*
%TO.P,U4,10*%
X179070000Y-67310000D03*
%TO.P,U4,9*%
X181610000Y-67310000D03*
%TO.P,U4,8*%
X184150000Y-67310000D03*
%TO.P,U4,7,GND*%
%TO.N,RESET*%
X184150000Y-74930000D03*
%TO.P,U4,6*%
%TO.N,N/C*%
X181610000Y-74930000D03*
%TO.P,U4,5*%
X179070000Y-74930000D03*
%TO.P,U4,4*%
%TO.N,Net-(U5-Pad12)*%
X176530000Y-74930000D03*
%TO.P,U4,3*%
%TO.N,IN3*%
X173990000Y-74930000D03*
%TO.P,U4,2*%
%TO.N,Net-(U5-Pad7)*%
X171450000Y-74930000D03*
D19*
%TO.P,U4,1*%
%TO.N,IN1*%
X168910000Y-74930000D03*
%TD*%
D20*
%TO.P,U3,16,SCL*%
%TO.N,SCL*%
X98620000Y-42535000D03*
%TO.P,U3,15,SDA*%
%TO.N,SDA*%
X98620000Y-43805000D03*
%TO.P,U3,14,VBAT*%
%TO.N,Net-(U3-Pad14)*%
X98620000Y-45075000D03*
%TO.P,U3,13,GND*%
%TO.N,RESET*%
X98620000Y-46345000D03*
%TO.P,U3,12,GND*%
X98620000Y-47615000D03*
%TO.P,U3,11,GND*%
X98620000Y-48885000D03*
%TO.P,U3,10,GND*%
X98620000Y-50155000D03*
%TO.P,U3,9,GND*%
X98620000Y-51425000D03*
%TO.P,U3,8,GND*%
X89320000Y-51425000D03*
%TO.P,U3,7,GND*%
X89320000Y-50155000D03*
%TO.P,U3,6,GND*%
X89320000Y-48885000D03*
%TO.P,U3,5,GND*%
X89320000Y-47615000D03*
%TO.P,U3,4,~{RST}*%
X89320000Y-46345000D03*
%TO.P,U3,3,~{INT}/SQW*%
%TO.N,unconnected-(U3-Pad3)*%
X89320000Y-45075000D03*
%TO.P,U3,2,VCC*%
%TO.N,RESET*%
X89320000Y-43805000D03*
%TO.P,U3,1,32KHZ*%
%TO.N,unconnected-(U3-Pad1)*%
X89320000Y-42535000D03*
%TD*%
D21*
%TO.P,U2,4,D5*%
%TO.N,D5*%
X140260000Y-97155000D03*
%TO.P,U2,5,D6*%
%TO.N,D6*%
X140260000Y-95885000D03*
%TO.P,U2,3,D4*%
%TO.N,D4*%
X140260000Y-98425000D03*
%TO.P,U2,2,CP*%
%TO.N,PD6*%
X140260000Y-99695000D03*
%TO.P,U2,1,~{PL}*%
%TO.N,PD7*%
X140260000Y-100965000D03*
%TO.P,U2,6,D7*%
%TO.N,D7*%
X140260000Y-94615000D03*
%TO.P,U2,7,~{Q7}*%
%TO.N,PD5*%
X140260000Y-93345000D03*
%TO.P,U2,8,GND*%
%TO.N,RESET*%
X140260000Y-92075000D03*
%TO.P,U2,13,D2*%
%TO.N,D2*%
X134060000Y-97155000D03*
%TO.P,U2,12,D1*%
%TO.N,D1*%
X134060000Y-95885000D03*
%TO.P,U2,14,D3*%
%TO.N,D3*%
X134060000Y-98425000D03*
%TO.P,U2,15,~{CE}*%
%TO.N,PD4*%
X134060000Y-99695000D03*
%TO.P,U2,16,VCC*%
%TO.N,RESET*%
X134060000Y-100965000D03*
%TO.P,U2,11,D0*%
%TO.N,D0*%
X134060000Y-94615000D03*
%TO.P,U2,10,DS*%
%TO.N,unconnected-(U2-Pad10)*%
X134060000Y-93345000D03*
%TO.P,U2,9,Q7*%
%TO.N,unconnected-(U2-Pad9)*%
X134060000Y-92075000D03*
%TD*%
D22*
%TO.P,U1,28,PC5*%
%TO.N,SCL*%
X85090000Y-43180000D03*
%TO.P,U1,27,PC4*%
%TO.N,SDA*%
X85090000Y-45720000D03*
%TO.P,U1,26,PC3*%
%TO.N,unconnected-(U1-Pad26)*%
X85090000Y-48260000D03*
%TO.P,U1,25,PC2*%
%TO.N,IN3*%
X85090000Y-50800000D03*
%TO.P,U1,24,PC1*%
%TO.N,unconnected-(U1-Pad24)*%
X85090000Y-53340000D03*
%TO.P,U1,23,PC0*%
%TO.N,IN1*%
X85090000Y-55880000D03*
%TO.P,U1,22,GND*%
%TO.N,RESET*%
X85090000Y-58420000D03*
%TO.P,U1,21,AREF*%
%TO.N,unconnected-(U1-Pad21)*%
X85090000Y-60960000D03*
%TO.P,U1,20,AVCC*%
%TO.N,RESET*%
X85090000Y-63500000D03*
%TO.P,U1,19,PB5*%
%TO.N,SCK*%
X85090000Y-66040000D03*
%TO.P,U1,18,PB4*%
%TO.N,MISO*%
X85090000Y-68580000D03*
%TO.P,U1,17,PB3*%
%TO.N,MOSI*%
X85090000Y-71120000D03*
%TO.P,U1,16,PB2*%
%TO.N,ULT3*%
X85090000Y-73660000D03*
%TO.P,U1,15,PB1*%
%TO.N,ULT2*%
X85090000Y-76200000D03*
%TO.P,U1,14,PB0*%
%TO.N,ULT1*%
X77470000Y-76200000D03*
%TO.P,U1,13,PD7*%
%TO.N,PD7*%
X77470000Y-73660000D03*
%TO.P,U1,12,PD6*%
%TO.N,PD6*%
X77470000Y-71120000D03*
%TO.P,U1,11,PD5*%
%TO.N,PD5*%
X77470000Y-68580000D03*
%TO.P,U1,10,XTAL2/PB7*%
%TO.N,XTAL2*%
X77470000Y-66040000D03*
%TO.P,U1,9,XTAL1/PB6*%
%TO.N,XTAL1*%
X77470000Y-63500000D03*
%TO.P,U1,8,GND*%
%TO.N,RESET*%
X77470000Y-60960000D03*
%TO.P,U1,7,VCC*%
X77470000Y-58420000D03*
%TO.P,U1,6,PD4*%
%TO.N,PD4*%
X77470000Y-55880000D03*
%TO.P,U1,5,PD3*%
%TO.N,PD3*%
X77470000Y-53340000D03*
%TO.P,U1,4,PD2*%
%TO.N,unconnected-(U1-Pad4)*%
X77470000Y-50800000D03*
%TO.P,U1,3,PD1*%
%TO.N,PD1*%
X77470000Y-48260000D03*
%TO.P,U1,2,PD0*%
%TO.N,PD0*%
X77470000Y-45720000D03*
D23*
%TO.P,U1,1,~{RESET}/PC6*%
%TO.N,Net-(U1-Pad1)*%
X77470000Y-43180000D03*
%TD*%
D24*
%TO.P,R100,2*%
%TO.N,Net-(C100-Pad2)*%
X57870000Y-133350000D03*
%TO.P,R100,1*%
%TO.N,Net-(J1000-Pad10)*%
X55870000Y-133350000D03*
%TD*%
%TO.P,R21,2*%
%TO.N,SDA*%
X60690000Y-119380000D03*
%TO.P,R21,1*%
%TO.N,RESET*%
X58690000Y-119380000D03*
%TD*%
%TO.P,R20,2*%
%TO.N,SCL*%
X67370000Y-133350000D03*
%TO.P,R20,1*%
%TO.N,RESET*%
X65370000Y-133350000D03*
%TD*%
%TO.P,R17,2*%
%TO.N,RESET*%
X150530000Y-141400000D03*
%TO.P,R17,1*%
%TO.N,Net-(J2-Pad1)*%
X148530000Y-141400000D03*
%TD*%
%TO.P,R16,2*%
%TO.N,RESET*%
X145070000Y-64152000D03*
%TO.P,R16,1*%
%TO.N,Net-(J2-Pad2)*%
X143070000Y-64152000D03*
%TD*%
%TO.P,R15,2*%
%TO.N,RESET*%
X135640000Y-71872000D03*
%TO.P,R15,1*%
%TO.N,Net-(J2-Pad3)*%
X133640000Y-71872000D03*
%TD*%
%TO.P,R14,2*%
%TO.N,RESET*%
X145780000Y-142240000D03*
%TO.P,R14,1*%
%TO.N,Net-(J2-Pad4)*%
X143780000Y-142240000D03*
%TD*%
%TO.P,R13,2*%
%TO.N,RESET*%
X62620000Y-133350000D03*
%TO.P,R13,1*%
%TO.N,Net-(J2-Pad5)*%
X60620000Y-133350000D03*
%TD*%
%TO.P,R12,2*%
%TO.N,RESET*%
X72120000Y-133350000D03*
%TO.P,R12,1*%
%TO.N,Net-(J2-Pad6)*%
X70120000Y-133350000D03*
%TD*%
%TO.P,R11,2*%
%TO.N,RESET*%
X129820000Y-133550000D03*
%TO.P,R11,1*%
%TO.N,Net-(J2-Pad7)*%
X127820000Y-133550000D03*
%TD*%
%TO.P,R10,2*%
%TO.N,RESET*%
X153020000Y-56202000D03*
%TO.P,R10,1*%
%TO.N,Net-(J2-Pad8)*%
X151020000Y-56202000D03*
%TD*%
%TO.P,R9,2*%
%TO.N,RESET*%
X145780000Y-139290000D03*
%TO.P,R9,1*%
%TO.N,Net-(U5-Pad15)*%
X143780000Y-139290000D03*
%TD*%
%TO.P,R8,2*%
%TO.N,RESET*%
X117840000Y-130810000D03*
%TO.P,R8,1*%
%TO.N,Net-(U1-Pad1)*%
X115840000Y-130810000D03*
%TD*%
%TO.P,R7,2*%
%TO.N,RESET*%
X135910000Y-152490000D03*
%TO.P,R7,1*%
%TO.N,Net-(U5-Pad1)*%
X133910000Y-152490000D03*
%TD*%
D16*
%TO.P,Q1,3,B*%
%TO.N,Net-(C100-Pad2)*%
X138430000Y-58795000D03*
%TO.P,Q1,2,C*%
%TO.N,Net-(J1000-Pad10)*%
X135890000Y-58795000D03*
D17*
%TO.P,Q1,1,E*%
%TO.N,RESET*%
X133350000Y-58795000D03*
%TD*%
D25*
%TO.P,J1000,10,Pin_10*%
%TO.N,Net-(J1000-Pad10)*%
X153735000Y-76200000D03*
%TO.P,J1000,09*%
%TO.N,N/C*%
X158685000Y-76200000D03*
%TO.P,J1000,08*%
X153735000Y-78740000D03*
%TO.P,J1000,07*%
X158685000Y-78740000D03*
%TO.P,J1000,06*%
X153735000Y-81280000D03*
%TO.P,J1000,05*%
X158685000Y-81280000D03*
%TO.P,J1000,04*%
X153735000Y-83820000D03*
%TO.P,J1000,03*%
X158685000Y-83820000D03*
%TO.P,J1000,02*%
X153735000Y-86360000D03*
%TO.P,J1000,01*%
X158685000Y-86360000D03*
%TD*%
D26*
%TO.P,J16,MP*%
%TO.N,N/C*%
X127975000Y-140940000D03*
X132925000Y-140940000D03*
D27*
%TO.P,J16,2,Pin_2*%
%TO.N,Net-(U3-Pad14)*%
X131075000Y-144290000D03*
%TO.P,J16,1,Pin_1*%
%TO.N,RESET*%
X129825000Y-144290000D03*
%TD*%
D26*
%TO.P,J15,MP*%
%TO.N,N/C*%
X66105000Y-76070000D03*
X71055000Y-76070000D03*
D27*
%TO.P,J15,2,Pin_2*%
%TO.N,Net-(V1-Pad1)*%
X69205000Y-79420000D03*
%TO.P,J15,1,Pin_1*%
%TO.N,RESET*%
X67955000Y-79420000D03*
%TD*%
D28*
%TO.P,J4,6,GND*%
%TO.N,RESET*%
X45720000Y-60960000D03*
%TO.P,J4,5,~{RST}*%
X43180000Y-60960000D03*
%TO.P,J4,4,MOSI*%
%TO.N,MOSI*%
X45720000Y-58420000D03*
%TO.P,J4,3,SCK*%
%TO.N,SCK*%
X43180000Y-58420000D03*
%TO.P,J4,2,VCC*%
%TO.N,RESET*%
X45720000Y-55880000D03*
D29*
%TO.P,J4,1,MISO*%
%TO.N,MISO*%
X43180000Y-55880000D03*
%TD*%
D30*
%TO.P,J3,8,Pin_8*%
%TO.N,D7*%
X140970000Y-111760000D03*
%TO.P,J3,7,Pin_7*%
%TO.N,D6*%
X138430000Y-111760000D03*
%TO.P,J3,6,Pin_6*%
%TO.N,D5*%
X135890000Y-111760000D03*
%TO.P,J3,5,Pin_5*%
%TO.N,D4*%
X133350000Y-111760000D03*
%TO.P,J3,4,Pin_4*%
%TO.N,D3*%
X130810000Y-111760000D03*
%TO.P,J3,3,Pin_3*%
%TO.N,D2*%
X128270000Y-111760000D03*
%TO.P,J3,2,Pin_2*%
%TO.N,D1*%
X125730000Y-111760000D03*
%TO.P,J3,1,Pin_1*%
%TO.N,D0*%
X123190000Y-111760000D03*
%TD*%
%TO.P,J2,8,Pin_8*%
%TO.N,Net-(J2-Pad8)*%
X177800000Y-88900000D03*
%TO.P,J2,7,Pin_7*%
%TO.N,Net-(J2-Pad7)*%
X177800000Y-91440000D03*
%TO.P,J2,6,Pin_6*%
%TO.N,Net-(J2-Pad6)*%
X177800000Y-93980000D03*
%TO.P,J2,5,Pin_5*%
%TO.N,Net-(J2-Pad5)*%
X177800000Y-96520000D03*
%TO.P,J2,4,Pin_4*%
%TO.N,Net-(J2-Pad4)*%
X177800000Y-99060000D03*
%TO.P,J2,3,Pin_3*%
%TO.N,Net-(J2-Pad3)*%
X177800000Y-101600000D03*
%TO.P,J2,2,Pin_2*%
%TO.N,Net-(J2-Pad2)*%
X177800000Y-104140000D03*
%TO.P,J2,1,Pin_1*%
%TO.N,Net-(J2-Pad1)*%
X177800000Y-106680000D03*
%TD*%
%TO.P,J1,8,Pin_8*%
%TO.N,RESET*%
X147320000Y-25400000D03*
%TO.P,J1,7,Pin_7*%
X144780000Y-25400000D03*
%TO.P,J1,6,Pin_6*%
X142240000Y-25400000D03*
%TO.P,J1,5,Pin_5*%
X139700000Y-25400000D03*
%TO.P,J1,4,Pin_4*%
X137160000Y-25400000D03*
%TO.P,J1,3,Pin_3*%
X134620000Y-25400000D03*
%TO.P,J1,2,Pin_2*%
X132080000Y-25400000D03*
%TO.P,J1,1,Pin_1*%
X129540000Y-25400000D03*
%TD*%
%TO.P,J0,31*%
%TO.N,N/C*%
X78740000Y-26670000D03*
%TO.P,J0,30*%
X81280000Y-26670000D03*
%TO.P,J0,29*%
X83820000Y-26670000D03*
%TO.P,J0,28*%
X86360000Y-26670000D03*
%TO.P,J0,27*%
X88900000Y-26670000D03*
%TO.P,J0,26*%
X91440000Y-26670000D03*
%TO.P,J0,25*%
X93980000Y-26670000D03*
%TO.P,J0,24*%
X96520000Y-26670000D03*
%TO.P,J0,23*%
X99060000Y-26670000D03*
%TO.P,J0,22*%
X101600000Y-26670000D03*
%TO.P,J0,21*%
X104140000Y-26670000D03*
%TO.P,J0,20,Pin_20*%
%TO.N,unconnected-(J0-Pad20)*%
X106680000Y-26670000D03*
%TO.P,J0,19,Pin_19*%
%TO.N,unconnected-(J0-Pad19)*%
X109220000Y-26670000D03*
%TO.P,J0,18,Pin_18*%
%TO.N,unconnected-(J0-Pad18)*%
X111760000Y-26670000D03*
%TO.P,J0,17,Pin_17*%
%TO.N,unconnected-(J0-Pad17)*%
X114300000Y-26670000D03*
%TO.P,J0,16,Pin_16*%
%TO.N,unconnected-(J0-Pad16)*%
X77470000Y-24130000D03*
%TO.P,J0,14,Pin_14*%
%TO.N,unconnected-(J0-Pad14)*%
X82550000Y-24130000D03*
%TO.P,J0,13,Pin_13*%
%TO.N,unconnected-(J0-Pad13)*%
X85090000Y-24130000D03*
%TO.P,J0,9,Pin_9*%
%TO.N,unconnected-(J0-Pad9)*%
X95250000Y-24130000D03*
%TO.P,J0,7,Pin_7*%
%TO.N,unconnected-(J0-Pad7)*%
X100330000Y-24130000D03*
%TO.P,J0,5,Pin_5*%
%TO.N,unconnected-(J0-Pad5)*%
X105410000Y-24130000D03*
%TO.P,J0,15,Pin_15*%
%TO.N,unconnected-(J0-Pad15)*%
X80010000Y-24130000D03*
D31*
%TO.P,J0,1,Pin_1*%
%TO.N,unconnected-(J0-Pad1)*%
X115570000Y-24130000D03*
D30*
%TO.P,J0,12,Pin_12*%
%TO.N,unconnected-(J0-Pad12)*%
X87630000Y-24130000D03*
%TO.P,J0,11,Pin_11*%
%TO.N,unconnected-(J0-Pad11)*%
X90170000Y-24130000D03*
%TO.P,J0,10,Pin_10*%
%TO.N,unconnected-(J0-Pad10)*%
X92710000Y-24130000D03*
%TO.P,J0,8,Pin_8*%
%TO.N,unconnected-(J0-Pad8)*%
X97790000Y-24130000D03*
%TO.P,J0,6,Pin_6*%
%TO.N,unconnected-(J0-Pad6)*%
X102870000Y-24130000D03*
%TO.P,J0,4,Pin_4*%
%TO.N,unconnected-(J0-Pad4)*%
X107950000Y-24130000D03*
%TO.P,J0,3,Pin_3*%
%TO.N,unconnected-(J0-Pad3)*%
X110490000Y-24130000D03*
%TO.P,J0,2,Pin_2*%
%TO.N,unconnected-(J0-Pad2)*%
X113030000Y-24130000D03*
%TD*%
D32*
%TO.P,C100,2*%
%TO.N,Net-(C100-Pad2)*%
X127230000Y-34290000D03*
%TO.P,C100,1*%
%TO.N,PD3*%
X124230000Y-34290000D03*
%TD*%
%TO.P,C17,2*%
%TO.N,RESET*%
X111990000Y-33020000D03*
%TO.P,C17,1*%
X108990000Y-33020000D03*
%TD*%
%TO.P,C11,2*%
%TO.N,RESET*%
X137410000Y-148590000D03*
%TO.P,C11,1*%
%TO.N,XTAL1*%
X134410000Y-148590000D03*
%TD*%
%TO.P,C10,2*%
%TO.N,RESET*%
X138010000Y-122200000D03*
%TO.P,C10,1*%
%TO.N,XTAL2*%
X135010000Y-122200000D03*
%TD*%
%TO.P,C9,2*%
%TO.N,RESET*%
X101830000Y-132080000D03*
%TO.P,C9,1*%
X98830000Y-132080000D03*
%TD*%
%TO.P,C7,2*%
%TO.N,RESET*%
X70220000Y-125160000D03*
%TO.P,C7,1*%
X67220000Y-125160000D03*
%TD*%
%TO.P,C1,2*%
%TO.N,RESET*%
X138660000Y-34290000D03*
%TO.P,C1,1*%
X135660000Y-34290000D03*
%TD*%
%TO.P,C0,2*%
%TO.N,RESET*%
X152260000Y-137500000D03*
%TO.P,C0,1*%
X149260000Y-137500000D03*
%TD*%
M02*
