%TF.GenerationSoftware,KiCad,Pcbnew,(6.0.7-1)-1*%
%TF.CreationDate,2022-10-11T17:33:31-05:00*%
%TF.ProjectId,PCB 2,50434220-322e-46b6-9963-61645f706362,rev?*%
%TF.SameCoordinates,Original*%
%TF.FileFunction,Soldermask,Top*%
%TF.FilePolarity,Negative*%
%FSLAX46Y46*%
G04 Gerber Fmt 4.6, Leading zero omitted, Abs format (unit mm)*
G04 Created by KiCad (PCBNEW (6.0.7-1)-1) date 2022-10-11 17:33:31*
%MOMM*%
%LPD*%
G01*
G04 APERTURE LIST*
G04 Aperture macros list*
%AMRoundRect*
0 Rectangle with rounded corners*
0 $1 Rounding radius*
0 $2 $3 $4 $5 $6 $7 $8 $9 X,Y pos of 4 corners*
0 Add a 4 corners polygon primitive as box body*
4,1,4,$2,$3,$4,$5,$6,$7,$8,$9,$2,$3,0*
0 Add four circle primitives for the rounded corners*
1,1,$1+$1,$2,$3*
1,1,$1+$1,$4,$5*
1,1,$1+$1,$6,$7*
1,1,$1+$1,$8,$9*
0 Add four rect primitives between the rounded corners*
20,1,$1+$1,$2,$3,$4,$5,0*
20,1,$1+$1,$4,$5,$6,$7,0*
20,1,$1+$1,$6,$7,$8,$9,0*
20,1,$1+$1,$8,$9,$2,$3,0*%
G04 Aperture macros list end*
%ADD10C,1.007000*%
%ADD11C,1.860000*%
%ADD12R,1.860000X1.860000*%
%ADD13O,1.800000X1.800000*%
%ADD14R,1.800000X1.800000*%
%ADD15O,3.500000X3.500000*%
%ADD16C,1.676400*%
%ADD17R,1.676400X1.676400*%
%ADD18RoundRect,0.150000X-0.875000X-0.150000X0.875000X-0.150000X0.875000X0.150000X-0.875000X0.150000X0*%
%ADD19R,2.000000X0.500000*%
%ADD20O,1.600000X1.600000*%
%ADD21R,1.600000X1.600000*%
%ADD22RoundRect,0.250000X-0.350000X-0.450000X0.350000X-0.450000X0.350000X0.450000X-0.350000X0.450000X0*%
%ADD23R,3.680000X1.270000*%
%ADD24RoundRect,0.250000X-0.250000X-1.150000X0.250000X-1.150000X0.250000X1.150000X-0.250000X1.150000X0*%
%ADD25RoundRect,0.150000X-0.150000X-0.700000X0.150000X-0.700000X0.150000X0.700000X-0.150000X0.700000X0*%
%ADD26C,1.700000*%
%ADD27RoundRect,0.250000X-0.600000X-0.600000X0.600000X-0.600000X0.600000X0.600000X-0.600000X0.600000X0*%
%ADD28C,1.530000*%
%ADD29R,1.530000X1.530000*%
%ADD30C,2.570000*%
%ADD31C,3.200000*%
%ADD32R,2.200000X1.600000*%
G04 APERTURE END LIST*
D10*
%TO.C,Y1*%
X69850000Y-62330000D03*
X69850000Y-67210000D03*
%TD*%
D11*
%TO.C,V1*%
X84072500Y-84368000D03*
X81532500Y-84368000D03*
D12*
X78992500Y-84368000D03*
%TD*%
D13*
%TO.C,U5*%
X180335000Y-49320000D03*
X179065000Y-46780000D03*
X177795000Y-49320000D03*
X176525000Y-46780000D03*
X175255000Y-49320000D03*
X173985000Y-46780000D03*
X172715000Y-49320000D03*
X171445000Y-46780000D03*
X170175000Y-49320000D03*
X168905000Y-46780000D03*
X167635000Y-49320000D03*
X166365000Y-46780000D03*
X165095000Y-49320000D03*
X163825000Y-46780000D03*
D14*
X162555000Y-49320000D03*
D15*
X171445000Y-28780000D03*
%TD*%
D16*
%TO.C,U4*%
X168910000Y-67310000D03*
X171450000Y-67310000D03*
X173990000Y-67310000D03*
X176530000Y-67310000D03*
X179070000Y-67310000D03*
X181610000Y-67310000D03*
X184150000Y-67310000D03*
X184150000Y-74930000D03*
X181610000Y-74930000D03*
X179070000Y-74930000D03*
X176530000Y-74930000D03*
X173990000Y-74930000D03*
X171450000Y-74930000D03*
D17*
X168910000Y-74930000D03*
%TD*%
D18*
%TO.C,U3*%
X98620000Y-42535000D03*
X98620000Y-43805000D03*
X98620000Y-45075000D03*
X98620000Y-46345000D03*
X98620000Y-47615000D03*
X98620000Y-48885000D03*
X98620000Y-50155000D03*
X98620000Y-51425000D03*
X89320000Y-51425000D03*
X89320000Y-50155000D03*
X89320000Y-48885000D03*
X89320000Y-47615000D03*
X89320000Y-46345000D03*
X89320000Y-45075000D03*
X89320000Y-43805000D03*
X89320000Y-42535000D03*
%TD*%
D19*
%TO.C,U2*%
X140260000Y-97155000D03*
X140260000Y-95885000D03*
X140260000Y-98425000D03*
X140260000Y-99695000D03*
X140260000Y-100965000D03*
X140260000Y-94615000D03*
X140260000Y-93345000D03*
X140260000Y-92075000D03*
X134060000Y-97155000D03*
X134060000Y-95885000D03*
X134060000Y-98425000D03*
X134060000Y-99695000D03*
X134060000Y-100965000D03*
X134060000Y-94615000D03*
X134060000Y-93345000D03*
X134060000Y-92075000D03*
%TD*%
D20*
%TO.C,U1*%
X85090000Y-43180000D03*
X85090000Y-45720000D03*
X85090000Y-48260000D03*
X85090000Y-50800000D03*
X85090000Y-53340000D03*
X85090000Y-55880000D03*
X85090000Y-58420000D03*
X85090000Y-60960000D03*
X85090000Y-63500000D03*
X85090000Y-66040000D03*
X85090000Y-68580000D03*
X85090000Y-71120000D03*
X85090000Y-73660000D03*
X85090000Y-76200000D03*
X77470000Y-76200000D03*
X77470000Y-73660000D03*
X77470000Y-71120000D03*
X77470000Y-68580000D03*
X77470000Y-66040000D03*
X77470000Y-63500000D03*
X77470000Y-60960000D03*
X77470000Y-58420000D03*
X77470000Y-55880000D03*
X77470000Y-53340000D03*
X77470000Y-50800000D03*
X77470000Y-48260000D03*
X77470000Y-45720000D03*
D21*
X77470000Y-43180000D03*
%TD*%
D22*
%TO.C,R100*%
X57870000Y-133350000D03*
X55870000Y-133350000D03*
%TD*%
%TO.C,R21*%
X60690000Y-119380000D03*
X58690000Y-119380000D03*
%TD*%
%TO.C,R20*%
X67370000Y-133350000D03*
X65370000Y-133350000D03*
%TD*%
%TO.C,R17*%
X150530000Y-141400000D03*
X148530000Y-141400000D03*
%TD*%
%TO.C,R16*%
X145070000Y-64152000D03*
X143070000Y-64152000D03*
%TD*%
%TO.C,R15*%
X135640000Y-71872000D03*
X133640000Y-71872000D03*
%TD*%
%TO.C,R14*%
X145780000Y-142240000D03*
X143780000Y-142240000D03*
%TD*%
%TO.C,R13*%
X62620000Y-133350000D03*
X60620000Y-133350000D03*
%TD*%
%TO.C,R12*%
X72120000Y-133350000D03*
X70120000Y-133350000D03*
%TD*%
%TO.C,R11*%
X129820000Y-133550000D03*
X127820000Y-133550000D03*
%TD*%
%TO.C,R10*%
X153020000Y-56202000D03*
X151020000Y-56202000D03*
%TD*%
%TO.C,R9*%
X145780000Y-139290000D03*
X143780000Y-139290000D03*
%TD*%
%TO.C,R8*%
X117840000Y-130810000D03*
X115840000Y-130810000D03*
%TD*%
%TO.C,R7*%
X135910000Y-152490000D03*
X133910000Y-152490000D03*
%TD*%
D13*
%TO.C,Q1*%
X138430000Y-58795000D03*
X135890000Y-58795000D03*
D14*
X133350000Y-58795000D03*
%TD*%
D23*
%TO.C,J1000*%
X153735000Y-76200000D03*
X158685000Y-76200000D03*
X153735000Y-78740000D03*
X158685000Y-78740000D03*
X153735000Y-81280000D03*
X158685000Y-81280000D03*
X153735000Y-83820000D03*
X158685000Y-83820000D03*
X153735000Y-86360000D03*
X158685000Y-86360000D03*
%TD*%
D24*
%TO.C,J16*%
X127975000Y-140940000D03*
X132925000Y-140940000D03*
D25*
X131075000Y-144290000D03*
X129825000Y-144290000D03*
%TD*%
D24*
%TO.C,J15*%
X66105000Y-76070000D03*
X71055000Y-76070000D03*
D25*
X69205000Y-79420000D03*
X67955000Y-79420000D03*
%TD*%
D26*
%TO.C,J4*%
X45720000Y-60960000D03*
X43180000Y-60960000D03*
X45720000Y-58420000D03*
X43180000Y-58420000D03*
X45720000Y-55880000D03*
D27*
X43180000Y-55880000D03*
%TD*%
D28*
%TO.C,J3*%
X140970000Y-111760000D03*
X138430000Y-111760000D03*
X135890000Y-111760000D03*
X133350000Y-111760000D03*
X130810000Y-111760000D03*
X128270000Y-111760000D03*
X125730000Y-111760000D03*
X123190000Y-111760000D03*
%TD*%
%TO.C,J2*%
X177800000Y-88900000D03*
X177800000Y-91440000D03*
X177800000Y-93980000D03*
X177800000Y-96520000D03*
X177800000Y-99060000D03*
X177800000Y-101600000D03*
X177800000Y-104140000D03*
X177800000Y-106680000D03*
%TD*%
%TO.C,J1*%
X147320000Y-25400000D03*
X144780000Y-25400000D03*
X142240000Y-25400000D03*
X139700000Y-25400000D03*
X137160000Y-25400000D03*
X134620000Y-25400000D03*
X132080000Y-25400000D03*
X129540000Y-25400000D03*
%TD*%
%TO.C,J0*%
X78740000Y-26670000D03*
X81280000Y-26670000D03*
X83820000Y-26670000D03*
X86360000Y-26670000D03*
X88900000Y-26670000D03*
X91440000Y-26670000D03*
X93980000Y-26670000D03*
X96520000Y-26670000D03*
X99060000Y-26670000D03*
X101600000Y-26670000D03*
X104140000Y-26670000D03*
X106680000Y-26670000D03*
X109220000Y-26670000D03*
X111760000Y-26670000D03*
X114300000Y-26670000D03*
X77470000Y-24130000D03*
X82550000Y-24130000D03*
X85090000Y-24130000D03*
X95250000Y-24130000D03*
X100330000Y-24130000D03*
X105410000Y-24130000D03*
X80010000Y-24130000D03*
D29*
X115570000Y-24130000D03*
D28*
X87630000Y-24130000D03*
X90170000Y-24130000D03*
X92710000Y-24130000D03*
X97790000Y-24130000D03*
X102870000Y-24130000D03*
X107950000Y-24130000D03*
X110490000Y-24130000D03*
X113030000Y-24130000D03*
D30*
X119380000Y-25400000D03*
X73660000Y-25400000D03*
%TD*%
D31*
%TO.C,H3*%
X147320000Y-39370000D03*
%TD*%
%TO.C,H2*%
X63500000Y-102870000D03*
%TD*%
%TO.C,H1*%
X147320000Y-102870000D03*
%TD*%
%TO.C,H0*%
X63500000Y-39370000D03*
%TD*%
D32*
%TO.C,C100*%
X127230000Y-34290000D03*
X124230000Y-34290000D03*
%TD*%
%TO.C,C17*%
X111990000Y-33020000D03*
X108990000Y-33020000D03*
%TD*%
%TO.C,C11*%
X137410000Y-148590000D03*
X134410000Y-148590000D03*
%TD*%
%TO.C,C10*%
X138010000Y-122200000D03*
X135010000Y-122200000D03*
%TD*%
%TO.C,C9*%
X101830000Y-132080000D03*
X98830000Y-132080000D03*
%TD*%
%TO.C,C7*%
X70220000Y-125160000D03*
X67220000Y-125160000D03*
%TD*%
%TO.C,C1*%
X138660000Y-34290000D03*
X135660000Y-34290000D03*
%TD*%
%TO.C,C0*%
X152260000Y-137500000D03*
X149260000Y-137500000D03*
%TD*%
M02*
