%TF.GenerationSoftware,KiCad,Pcbnew,(6.0.7-1)-1*%
%TF.CreationDate,2022-10-11T17:33:30-05:00*%
%TF.ProjectId,PCB 2,50434220-322e-46b6-9963-61645f706362,rev?*%
%TF.SameCoordinates,Original*%
%TF.FileFunction,Copper,L2,Bot*%
%TF.FilePolarity,Positive*%
%FSLAX46Y46*%
G04 Gerber Fmt 4.6, Leading zero omitted, Abs format (unit mm)*
G04 Created by KiCad (PCBNEW (6.0.7-1)-1) date 2022-10-11 17:33:30*
%MOMM*%
%LPD*%
G01*
G04 APERTURE LIST*
G04 Aperture macros list*
%AMRoundRect*
0 Rectangle with rounded corners*
0 $1 Rounding radius*
0 $2 $3 $4 $5 $6 $7 $8 $9 X,Y pos of 4 corners*
0 Add a 4 corners polygon primitive as box body*
4,1,4,$2,$3,$4,$5,$6,$7,$8,$9,$2,$3,0*
0 Add four circle primitives for the rounded corners*
1,1,$1+$1,$2,$3*
1,1,$1+$1,$4,$5*
1,1,$1+$1,$6,$7*
1,1,$1+$1,$8,$9*
0 Add four rect primitives between the rounded corners*
20,1,$1+$1,$2,$3,$4,$5,0*
20,1,$1+$1,$4,$5,$6,$7,0*
20,1,$1+$1,$6,$7,$8,$9,0*
20,1,$1+$1,$8,$9,$2,$3,0*%
G04 Aperture macros list end*
%TA.AperFunction,ComponentPad*%
%ADD10C,1.007000*%
%TD*%
%TA.AperFunction,ComponentPad*%
%ADD11C,1.860000*%
%TD*%
%TA.AperFunction,ComponentPad*%
%ADD12R,1.860000X1.860000*%
%TD*%
%TA.AperFunction,ComponentPad*%
%ADD13O,1.800000X1.800000*%
%TD*%
%TA.AperFunction,ComponentPad*%
%ADD14R,1.800000X1.800000*%
%TD*%
%TA.AperFunction,ComponentPad*%
%ADD15C,1.676400*%
%TD*%
%TA.AperFunction,ComponentPad*%
%ADD16R,1.676400X1.676400*%
%TD*%
%TA.AperFunction,ComponentPad*%
%ADD17O,1.600000X1.600000*%
%TD*%
%TA.AperFunction,ComponentPad*%
%ADD18R,1.600000X1.600000*%
%TD*%
%TA.AperFunction,ComponentPad*%
%ADD19C,1.700000*%
%TD*%
%TA.AperFunction,ComponentPad*%
%ADD20RoundRect,0.250000X-0.600000X-0.600000X0.600000X-0.600000X0.600000X0.600000X-0.600000X0.600000X0*%
%TD*%
%TA.AperFunction,ComponentPad*%
%ADD21C,1.530000*%
%TD*%
%TA.AperFunction,ComponentPad*%
%ADD22R,1.530000X1.530000*%
%TD*%
G04 APERTURE END LIST*
D10*
%TO.P,Y1,2,2*%
%TO.N,XTAL1*%
X69850000Y-62330000D03*
%TO.P,Y1,1,1*%
%TO.N,XTAL2*%
X69850000Y-67210000D03*
%TD*%
D11*
%TO.P,V1,3,OUT*%
%TO.N,RESET*%
X84072500Y-84368000D03*
%TO.P,V1,2,GND*%
X81532500Y-84368000D03*
D12*
%TO.P,V1,1,IN*%
%TO.N,Net-(V1-Pad1)*%
X78992500Y-84368000D03*
%TD*%
D13*
%TO.P,U5,15,SENSE_B*%
%TO.N,Net-(U5-Pad15)*%
X180335000Y-49320000D03*
%TO.P,U5,14,OUT4*%
%TO.N,OUT4*%
X179065000Y-46780000D03*
%TO.P,U5,13,OUT3*%
%TO.N,OUT3*%
X177795000Y-49320000D03*
%TO.P,U5,12,IN4*%
%TO.N,Net-(U5-Pad12)*%
X176525000Y-46780000D03*
%TO.P,U5,11,EnB*%
%TO.N,RESET*%
X175255000Y-49320000D03*
%TO.P,U5,10,IN3*%
%TO.N,IN3*%
X173985000Y-46780000D03*
%TO.P,U5,9,Vss*%
%TO.N,RESET*%
X172715000Y-49320000D03*
%TO.P,U5,8,GND*%
X171445000Y-46780000D03*
%TO.P,U5,7,IN2*%
%TO.N,Net-(U5-Pad7)*%
X170175000Y-49320000D03*
%TO.P,U5,6,EnA*%
%TO.N,RESET*%
X168905000Y-46780000D03*
%TO.P,U5,5,IN1*%
%TO.N,IN1*%
X167635000Y-49320000D03*
%TO.P,U5,4,Vs*%
%TO.N,RESET*%
X166365000Y-46780000D03*
%TO.P,U5,3,OUT2*%
%TO.N,OUT2*%
X165095000Y-49320000D03*
%TO.P,U5,2,OUT1*%
%TO.N,OUT1*%
X163825000Y-46780000D03*
D14*
%TO.P,U5,1,SENSE_A*%
%TO.N,Net-(U5-Pad1)*%
X162555000Y-49320000D03*
%TD*%
D15*
%TO.P,U4,14,VCC*%
%TO.N,RESET*%
X168910000Y-67310000D03*
%TO.P,U4,13*%
%TO.N,N/C*%
X171450000Y-67310000D03*
%TO.P,U4,12*%
X173990000Y-67310000D03*
%TO.P,U4,11*%
X176530000Y-67310000D03*
%TO.P,U4,10*%
X179070000Y-67310000D03*
%TO.P,U4,9*%
X181610000Y-67310000D03*
%TO.P,U4,8*%
X184150000Y-67310000D03*
%TO.P,U4,7,GND*%
%TO.N,RESET*%
X184150000Y-74930000D03*
%TO.P,U4,6*%
%TO.N,N/C*%
X181610000Y-74930000D03*
%TO.P,U4,5*%
X179070000Y-74930000D03*
%TO.P,U4,4*%
%TO.N,Net-(U5-Pad12)*%
X176530000Y-74930000D03*
%TO.P,U4,3*%
%TO.N,IN3*%
X173990000Y-74930000D03*
%TO.P,U4,2*%
%TO.N,Net-(U5-Pad7)*%
X171450000Y-74930000D03*
D16*
%TO.P,U4,1*%
%TO.N,IN1*%
X168910000Y-74930000D03*
%TD*%
D17*
%TO.P,U1,28,PC5*%
%TO.N,SCL*%
X85090000Y-43180000D03*
%TO.P,U1,27,PC4*%
%TO.N,SDA*%
X85090000Y-45720000D03*
%TO.P,U1,26,PC3*%
%TO.N,unconnected-(U1-Pad26)*%
X85090000Y-48260000D03*
%TO.P,U1,25,PC2*%
%TO.N,IN3*%
X85090000Y-50800000D03*
%TO.P,U1,24,PC1*%
%TO.N,unconnected-(U1-Pad24)*%
X85090000Y-53340000D03*
%TO.P,U1,23,PC0*%
%TO.N,IN1*%
X85090000Y-55880000D03*
%TO.P,U1,22,GND*%
%TO.N,RESET*%
X85090000Y-58420000D03*
%TO.P,U1,21,AREF*%
%TO.N,unconnected-(U1-Pad21)*%
X85090000Y-60960000D03*
%TO.P,U1,20,AVCC*%
%TO.N,RESET*%
X85090000Y-63500000D03*
%TO.P,U1,19,PB5*%
%TO.N,SCK*%
X85090000Y-66040000D03*
%TO.P,U1,18,PB4*%
%TO.N,MISO*%
X85090000Y-68580000D03*
%TO.P,U1,17,PB3*%
%TO.N,MOSI*%
X85090000Y-71120000D03*
%TO.P,U1,16,PB2*%
%TO.N,ULT3*%
X85090000Y-73660000D03*
%TO.P,U1,15,PB1*%
%TO.N,ULT2*%
X85090000Y-76200000D03*
%TO.P,U1,14,PB0*%
%TO.N,ULT1*%
X77470000Y-76200000D03*
%TO.P,U1,13,PD7*%
%TO.N,PD7*%
X77470000Y-73660000D03*
%TO.P,U1,12,PD6*%
%TO.N,PD6*%
X77470000Y-71120000D03*
%TO.P,U1,11,PD5*%
%TO.N,PD5*%
X77470000Y-68580000D03*
%TO.P,U1,10,XTAL2/PB7*%
%TO.N,XTAL2*%
X77470000Y-66040000D03*
%TO.P,U1,9,XTAL1/PB6*%
%TO.N,XTAL1*%
X77470000Y-63500000D03*
%TO.P,U1,8,GND*%
%TO.N,RESET*%
X77470000Y-60960000D03*
%TO.P,U1,7,VCC*%
X77470000Y-58420000D03*
%TO.P,U1,6,PD4*%
%TO.N,PD4*%
X77470000Y-55880000D03*
%TO.P,U1,5,PD3*%
%TO.N,PD3*%
X77470000Y-53340000D03*
%TO.P,U1,4,PD2*%
%TO.N,unconnected-(U1-Pad4)*%
X77470000Y-50800000D03*
%TO.P,U1,3,PD1*%
%TO.N,PD1*%
X77470000Y-48260000D03*
%TO.P,U1,2,PD0*%
%TO.N,PD0*%
X77470000Y-45720000D03*
D18*
%TO.P,U1,1,~{RESET}/PC6*%
%TO.N,Net-(U1-Pad1)*%
X77470000Y-43180000D03*
%TD*%
D13*
%TO.P,Q1,3,B*%
%TO.N,Net-(C100-Pad2)*%
X138430000Y-58795000D03*
%TO.P,Q1,2,C*%
%TO.N,Net-(J1000-Pad10)*%
X135890000Y-58795000D03*
D14*
%TO.P,Q1,1,E*%
%TO.N,RESET*%
X133350000Y-58795000D03*
%TD*%
D19*
%TO.P,J4,6,GND*%
%TO.N,RESET*%
X45720000Y-60960000D03*
%TO.P,J4,5,~{RST}*%
X43180000Y-60960000D03*
%TO.P,J4,4,MOSI*%
%TO.N,MOSI*%
X45720000Y-58420000D03*
%TO.P,J4,3,SCK*%
%TO.N,SCK*%
X43180000Y-58420000D03*
%TO.P,J4,2,VCC*%
%TO.N,RESET*%
X45720000Y-55880000D03*
D20*
%TO.P,J4,1,MISO*%
%TO.N,MISO*%
X43180000Y-55880000D03*
%TD*%
D21*
%TO.P,J3,8,Pin_8*%
%TO.N,D7*%
X140970000Y-111760000D03*
%TO.P,J3,7,Pin_7*%
%TO.N,D6*%
X138430000Y-111760000D03*
%TO.P,J3,6,Pin_6*%
%TO.N,D5*%
X135890000Y-111760000D03*
%TO.P,J3,5,Pin_5*%
%TO.N,D4*%
X133350000Y-111760000D03*
%TO.P,J3,4,Pin_4*%
%TO.N,D3*%
X130810000Y-111760000D03*
%TO.P,J3,3,Pin_3*%
%TO.N,D2*%
X128270000Y-111760000D03*
%TO.P,J3,2,Pin_2*%
%TO.N,D1*%
X125730000Y-111760000D03*
%TO.P,J3,1,Pin_1*%
%TO.N,D0*%
X123190000Y-111760000D03*
%TD*%
%TO.P,J2,8,Pin_8*%
%TO.N,Net-(J2-Pad8)*%
X177800000Y-88900000D03*
%TO.P,J2,7,Pin_7*%
%TO.N,Net-(J2-Pad7)*%
X177800000Y-91440000D03*
%TO.P,J2,6,Pin_6*%
%TO.N,Net-(J2-Pad6)*%
X177800000Y-93980000D03*
%TO.P,J2,5,Pin_5*%
%TO.N,Net-(J2-Pad5)*%
X177800000Y-96520000D03*
%TO.P,J2,4,Pin_4*%
%TO.N,Net-(J2-Pad4)*%
X177800000Y-99060000D03*
%TO.P,J2,3,Pin_3*%
%TO.N,Net-(J2-Pad3)*%
X177800000Y-101600000D03*
%TO.P,J2,2,Pin_2*%
%TO.N,Net-(J2-Pad2)*%
X177800000Y-104140000D03*
%TO.P,J2,1,Pin_1*%
%TO.N,Net-(J2-Pad1)*%
X177800000Y-106680000D03*
%TD*%
%TO.P,J1,8,Pin_8*%
%TO.N,RESET*%
X147320000Y-25400000D03*
%TO.P,J1,7,Pin_7*%
X144780000Y-25400000D03*
%TO.P,J1,6,Pin_6*%
X142240000Y-25400000D03*
%TO.P,J1,5,Pin_5*%
X139700000Y-25400000D03*
%TO.P,J1,4,Pin_4*%
X137160000Y-25400000D03*
%TO.P,J1,3,Pin_3*%
X134620000Y-25400000D03*
%TO.P,J1,2,Pin_2*%
X132080000Y-25400000D03*
%TO.P,J1,1,Pin_1*%
X129540000Y-25400000D03*
%TD*%
%TO.P,J0,31*%
%TO.N,N/C*%
X78740000Y-26670000D03*
%TO.P,J0,30*%
X81280000Y-26670000D03*
%TO.P,J0,29*%
X83820000Y-26670000D03*
%TO.P,J0,28*%
X86360000Y-26670000D03*
%TO.P,J0,27*%
X88900000Y-26670000D03*
%TO.P,J0,26*%
X91440000Y-26670000D03*
%TO.P,J0,25*%
X93980000Y-26670000D03*
%TO.P,J0,24*%
X96520000Y-26670000D03*
%TO.P,J0,23*%
X99060000Y-26670000D03*
%TO.P,J0,22*%
X101600000Y-26670000D03*
%TO.P,J0,21*%
X104140000Y-26670000D03*
%TO.P,J0,20,Pin_20*%
%TO.N,unconnected-(J0-Pad20)*%
X106680000Y-26670000D03*
%TO.P,J0,19,Pin_19*%
%TO.N,unconnected-(J0-Pad19)*%
X109220000Y-26670000D03*
%TO.P,J0,18,Pin_18*%
%TO.N,unconnected-(J0-Pad18)*%
X111760000Y-26670000D03*
%TO.P,J0,17,Pin_17*%
%TO.N,unconnected-(J0-Pad17)*%
X114300000Y-26670000D03*
%TO.P,J0,16,Pin_16*%
%TO.N,unconnected-(J0-Pad16)*%
X77470000Y-24130000D03*
%TO.P,J0,14,Pin_14*%
%TO.N,unconnected-(J0-Pad14)*%
X82550000Y-24130000D03*
%TO.P,J0,13,Pin_13*%
%TO.N,unconnected-(J0-Pad13)*%
X85090000Y-24130000D03*
%TO.P,J0,9,Pin_9*%
%TO.N,unconnected-(J0-Pad9)*%
X95250000Y-24130000D03*
%TO.P,J0,7,Pin_7*%
%TO.N,unconnected-(J0-Pad7)*%
X100330000Y-24130000D03*
%TO.P,J0,5,Pin_5*%
%TO.N,unconnected-(J0-Pad5)*%
X105410000Y-24130000D03*
%TO.P,J0,15,Pin_15*%
%TO.N,unconnected-(J0-Pad15)*%
X80010000Y-24130000D03*
D22*
%TO.P,J0,1,Pin_1*%
%TO.N,unconnected-(J0-Pad1)*%
X115570000Y-24130000D03*
D21*
%TO.P,J0,12,Pin_12*%
%TO.N,unconnected-(J0-Pad12)*%
X87630000Y-24130000D03*
%TO.P,J0,11,Pin_11*%
%TO.N,unconnected-(J0-Pad11)*%
X90170000Y-24130000D03*
%TO.P,J0,10,Pin_10*%
%TO.N,unconnected-(J0-Pad10)*%
X92710000Y-24130000D03*
%TO.P,J0,8,Pin_8*%
%TO.N,unconnected-(J0-Pad8)*%
X97790000Y-24130000D03*
%TO.P,J0,6,Pin_6*%
%TO.N,unconnected-(J0-Pad6)*%
X102870000Y-24130000D03*
%TO.P,J0,4,Pin_4*%
%TO.N,unconnected-(J0-Pad4)*%
X107950000Y-24130000D03*
%TO.P,J0,3,Pin_3*%
%TO.N,unconnected-(J0-Pad3)*%
X110490000Y-24130000D03*
%TO.P,J0,2,Pin_2*%
%TO.N,unconnected-(J0-Pad2)*%
X113030000Y-24130000D03*
%TD*%
M02*
